<svg xmlns="http://www.w3.org/2000/svg" width="432" height="100"><g fill="#fff"><path d="M125.562 59.465v-13.63h46.208v13.95L161.7 50.11h-7.902v41.85h7.258v4.594H136.05V91.96h6.773V50.1h-8.386l-8.876 9.356m61.93.32v9.152l3.27-4.898c1.207-1.633 3.8-4.898 7.254-4.898h4.597v13.426l-4.96-4.96s-1.754-1.27-4.957.242c-2.765 1.3-5.203 5.445-5.203 5.445V91.96h5.93v4.594h-21.047V91.96h4.84V64.703l-4.84-4.918h15.117M216.887 80.6c-2.36 1.4-2.926 4.46-2.06 7.38.7 2.4 3.813 4.695 6.957 3.324s3.988-4.898 3.988-4.898V79.16s-6.53.06-8.886 1.45zm-9.075-7.437V60.3h7.5s3.145-1.148 7.258-1.148c5.14 0 8.164 1.453 9.676 2.48s3.87 3.445 3.934 6.953 0 23.387 0 23.387h5.078v4.594h-14.516s-.73-.2-.73-2.05l.008-4.46s-1.133 3.8-5.383 6.168c-3.398 1.887-11.766 2.32-15.605-3.527-4.332-6.598.016-11.94.016-11.94s1.86-2.895 7.785-3.578l13.063-1.332V67.3s-.195-2.8-3.605-3.688c-4.016-1.063-6.586.996-6.586.996l-7.893 8.558m36.89 23.38V91.96h5.082V66.457l-4.656-4.836h15.3v30.34h5.44v4.594H244.7m24.072 0V91.96h4.84V49.547l-5.402-5.406h15.965v47.82h5.887v4.594h-21.3m-7.568-48.3c0 3.117-2.9 5.645-6.453 5.645s-6.45-2.527-6.45-5.645 2.887-5.645 6.45-5.645 6.453 2.528 6.453 5.645m85.637 48.3V91.96h5.082V66.457l-4.656-4.836h15.3v30.34H368v4.594h-21.168m16.488-48.3c0 3.117-2.887 5.645-6.45 5.645s-6.45-2.527-6.45-5.645 2.887-5.645 6.45-5.645 6.45 2.528 6.45 5.645"/><path d="M302.922 96.555V91.96h6.008V50.4l-4.957-4.957h21.246l-5.12 5.12V91.96h13.75l9.03-13.348h.562v17.942h-40.52m67.735.001V91.96h4.957V64.945h-5.602V60.27h5.602v-5.766s-.12-4.03 2.5-7.418 5.926-4.676 8.547-5.2c0 0 3.55-.8 8.55 0 3.93.633 5.2 1.57 5.2 1.57v10.04h-.402l-5.688-7.176s-.684-.566-3.184-.605-3.87 2.258-4.195 2.824-.723 2.215-.762 3.508 0 8.223 0 8.223l7.78-.242v4.918h-7.78v27.016h7.132v4.594h-22.655m44.29-32.794c-.97 0-1.828.172-2.574.512s-1.402.96-1.957 1.86-1.004 2.117-1.344 3.648-.578 3.465-.723 5.797h11.672c.34-3.793.125-6.7-.652-8.754s-2.25-3.062-4.422-3.062zm15.067 27.062c-.4.828-1.008 1.668-1.86 2.516s-1.898 1.605-3.137 2.262-2.676 1.195-4.305 1.605-3.4.62-5.3.62c-3.016 0-5.688-.45-8.023-1.352s-4.28-2.188-5.837-3.863-2.733-3.684-3.534-6.02-1.207-4.96-1.207-7.88c0-6.223 1.63-10.965 4.9-14.223s7.777-4.887 13.566-4.887c2.48 0 4.8.34 6.965 1.02s3.965 1.8 5.398 3.355 2.43 3.602 2.992 6.13.52 5.617-.1 9.262h-22.4c.047 3.844 1.03 6.906 2.953 9.2 1.922 2.3 4.754 3.43 8.5 3.43 1.602 0 3.27-.242 4.996-.73s3.074-1.117 4.047-1.895l1.387 1.458M424.3 51.215v4.332h-.606v-4.332h-1.398v-.56h3.418v.56H424.3m6.108 4.332v-3.94c-.008.016-.063.14-.227.37l-1.49 2.173-1.47-2.2c-.145-.22-.203-.336-.207-.352v3.94h-.602v-4.9h.637l1.64 2.508 1.72-2.508h.605v4.9h-.605M99.828 43.05h-2.285l-28.66-30.106-6.578 3.66-.06-.058-.5-.465-.578-.738L49.223 0 37.887 13.2 30.79 8.73l-1.644 2.172-21.24 28.082H0v60.668h27.012l43.597-.078h32.188V43.05h-2.97"/></g><path fill="#81592f" d="M89.98 71.992c-.5-.117-.95.074-.95.074s.028.574-.008.922-.195.46-.195.46l-12.35.844c-1.422.074-2.6-.04-3.032-.23s-4.527-3.183-5.293-3.76l-5.988-4.527s-.344 1.766-.996 3.418-2.148 2.875-2.148 2.875l-4.45 11.395c-.23.69-1.226 1.168-1.226 1.168l16.035 9.383-.895 1.074 2.12 1.523H86.03l4.852-24.402c0-.001-.403-.103-.903-.216"/><path fill="#ba1f2d" d="M27.508 89.117c.488-1.47 1.55-2.715 1.55-2.715l.51-2.94c-1.687-.383-2.94-1.047-4.093-2.02s-2.176-2.176-2.227-3.12 1.715-6.828 1.715-6.828-3.016-2.047-3.195-4.68c-.086-1.226 1.378-8.75 1.378-8.75 1.024-1.124 2.74-3.476 2.74-3.476s-1.176-4.426 1.48-6.703c2.664-2.274 6.574-1.047 6.574-1.047l-3.527-4.426c-1.793-2.25-2.53-4.246-2.94-5.625s.125-2.816.484-3.43 2.56-2.61 2.56-2.61l4.6-3.758c.488-.332 4.988-4.066 4.988-4.066l5.27-3.914.664.69s2.047-.77 2.89-1.383 3.785-2.148 4.777-2.378a2.81 2.81 0 0 1 .34-.051c.105-.012.293-.016.293-.016.055 0 .113.016.168.016l.1.01c1.227.082 2.4.543 3.403 1.133l.105.06.477.3.1.074.89.672-.758-.97-9.72-12.483-10.64 12.378-6.957-4.37L9.387 41.953H2.97v54.73h24.043l.16-1.56c-.6-2.25-.22-4.354.336-6.007"/><path fill="#81592f" d="M96.273 46.016l-27.957-29.36-6.722 3.742h-.016c.024.05.06.106.074.153a.61.61 0 0 1 .028.082c.01.04.02.074.023.11s0 .07-.004.102c-.004.023-.004.047-.008.07a.32.32 0 0 1-.086.141c-.117.113-.242.187-.378.242a1.4 1.4 0 0 1-.43.074c-.15.008-.305-.008-.465-.035-.81-.137-1.742-.578-2.6-.387-.148.03-.297.078-.44.13-.035.016-.07.027-.106.04l-.398.164-.367.184c-.024.012-.05.023-.075.04l-.25.137c-.015.01-.023.02-.04.027-.36.203-.87.54-.945.664s.074.258.254.336.996-.016 1.687.137 1.23.578 1.344.96-.383.422-.844.343-.574.08-1.035 0-.922-.074-1.574.08-1.187.19-1.88.04-2.53-.96-3.07-1.036-1.254.164-1.254.164.36.82.31 1.282-.77.715-1.227 1.175-7.47 6.395-8.03 6.856-1.28 2.914-1.535 3.223-1.125.355-1.125.355.996.28 1.535.512 2.12 1.23 4.347 2.94 4.602 4.63 4.602 4.63l1.05-.844c.433.18 2.683.332 2.683.332l-.64-.69c-.176-.203-.407-.535-.407-.918s.536-.87.665-1.203.152-1.098.152-1.66.1-1.973.387-2.586c.277-.613.894-.996 1.125-1.434.226-.433.203-1.328.226-1.71.028-.383.106-.64.207-.894s1.047-1.254 1.15-1.512.078-.434.078-.434-.13-.92-.102-1.328.383-1 .973-1.51 3.504-.895 4.578-.664 3.938 1.433 4.81 2.226 1.765 1.942 1.918 2.324.023.692.023.692.28.004.562.18c.512.32.567 2.33.567 2.633 0 .31.023.617-.078 1.153s-.64 1.175-.77 1.738-.484 1.64-1.074 2.508-1.812 1.355-2.07 1.535-.563.512-.563.512l-1.765 4.218 1.738.54-.664 3.172c1.074.664 3.504 2.836 3.992 3.504s.715 1.637.816 2.02 3.172 4.477 3.71 5.012 3.836 4.605 3.99 4.577c.152-.022.843.41 1.382.513s1.43.4 1.762.512 2.356.46 3.02.4 5.574-.027 6.523-.31 1.2.18 1.2.18l.34-.094s.336-.422.914-1.25c.606-.863.68-.875 1.137-.977s.894-.086.894-.086L93 59.598l.176-1.023c.742-.715 2.304-.637 2.996-.513.687.13.637.438.562.67s-.28.535-.332.793l-1.074 5.316a3.78 3.78 0 0 0 .766.23c.332.156.683.48.66 1.145l-.15 3.4c-.01.4-.308 1.79-.664 2.148s-1.484.613-1.484.613l-4.68 24.223h10.05V46.016h-3.555"/><path fill="#fff" d="M96.094 65.07c-.332-.152-.766-.23-.766-.23l1.074-5.316c.05-.258.254-.566.332-.793s.125-.54-.562-.67c-.692-.124-2.254-.202-2.996.513L93 59.598l-.938 5.113s-.433-.016-.894.086-.53.113-1.137.977l-.914 1.25-.34.094s-.254-.46-1.2-.18-5.86.258-6.523.31-2.688-.31-3.02-.4l-1.762-.512c-.54-.102-1.23-.535-1.382-.513-.153.028-3.453-4.038-3.99-4.577s-3.61-4.63-3.71-5.012-.332-1.355-.816-2.02-2.918-2.84-3.992-3.504l.664-3.172-1.738-.54 1.765-4.218s.31-.332.563-.512 1.484-.664 2.07-1.535.95-1.942 1.074-2.508.668-1.2.77-1.738.078-.844.078-1.153c0-.304-.055-2.312-.567-2.633-.28-.175-.562-.18-.562-.18s.13-.305-.023-.692-1.05-1.53-1.918-2.324-3.735-1.996-4.81-2.226-3.992.152-4.578.664-.95 1.1-.973 1.51.102 1.328.102 1.328.027.18-.078.434-1.047 1.254-1.15 1.512-.18.51-.207.894c-.023.383 0 1.278-.226 1.71-.23.438-.848.82-1.125 1.434-.286.613-.387 2.023-.387 2.586s-.024 1.328-.152 1.66-.665.82-.665 1.203.23.715.407.918l.64.69s-2.25-.152-2.683-.332l-1.05.844s-2.38-2.914-4.602-4.63-3.812-2.71-4.347-2.94-1.535-.512-1.535-.512.867-.05 1.125-.355.972-2.766 1.535-3.223 7.57-6.395 8.03-6.856 1.176-.718 1.227-1.175-.31-1.282-.31-1.282.72-.242 1.254-.164 2.38.883 3.07 1.036 1.227.113 1.88-.04 1.113-.153 1.574-.08.575-.074 1.035 0 .96.04.844-.343-.652-.805-1.344-.96-1.507-.063-1.687-.137-.332-.207-.254-.336.586-.46.945-.664c.016-.008.024-.016.04-.027l.25-.137c.024-.016.05-.027.075-.04l.363-.18s.266-.117.402-.168l.106-.04c.144-.05.293-.098.44-.13.848-.19 1.78.25 2.6.387.16.027.316.043.465.035a1.4 1.4 0 0 0 .43-.074c.136-.055.26-.13.378-.242a.32.32 0 0 0 .086-.141c.004-.023.004-.047.008-.07.004-.032.008-.067.004-.102s-.012-.07-.023-.11a.61.61 0 0 0-.028-.082c-.156-.453-.695-1.1-1.492-1.89-.168-.168-.363-.344-.574-.52a10.73 10.73 0 0 0-.891-.676 2.16 2.16 0 0 1-.101-.074l-.477-.3-.105-.06c-1.004-.6-2.176-1.05-3.403-1.133l-.1-.01c-.055 0-.113-.016-.168-.016l-.293.016a2.81 2.81 0 0 0-.34.051c-.992.23-3.934 1.765-4.777 2.378S46.04 19.7 46.04 19.7l-.664-.69-5.27 3.914-4.988 4.066c-.484.332-4.6 3.758-4.6 3.758s-2.2 1.996-2.56 2.61-.895 2.047-.484 3.43 1.148 3.375 2.94 5.625l3.527 4.426s-3.9-1.227-6.574 1.047c-2.656 2.277-1.48 6.703-1.48 6.703s-1.715 2.352-2.74 3.476l-1.378 8.75c.18 2.634 3.195 4.68 3.195 4.68S23.2 77.376 23.25 78.32s1.074 2.148 2.227 3.12 2.406 1.637 4.093 2.02l-.51 2.94s-1.063 1.246-1.55 2.715c-.555 1.652-.926 3.758-.336 6.008l-.16 1.56 43.593-.074-2.12-1.523.895-1.074-16.035-9.383s.996-.477 1.226-1.168 4.45-11.395 4.45-11.395 1.496-1.227 2.148-2.875.996-3.418.996-3.418l5.988 4.527 5.293 3.76s1.6.306 3.032.23l12.35-.844s.156-.117.195-.46.008-.922.008-.922.45-.19.95-.074l.903.215L86.03 96.6h3.746l4.68-24.223s1.125-.254 1.484-.613.653-1.738.664-2.148l.15-3.4s-.328-.99-.66-1.146"/></svg>